<svg viewBox="-15 -15 50 50" xmlns="http://www.w3.org/2000/svg">
<line x1="0" y1="0" x2="1.0" y2="0.0" stroke-width="1" stroke="black" />
<line x1="1.0" y1="0.0" x2="2.0" y2="0.0" stroke-width="1" stroke="black" />
<line x1="2.0" y1="0.0" x2="2.90630778703665" y2="0.42261826174069944" stroke-width="1" stroke="black" />
<line x1="2.90630778703665" y1="0.42261826174069944" x2="3.8126155740733" y2="0.8452365234813989" stroke-width="1" stroke="black" />
<line x1="3.8126155740733" y1="0.8452365234813989" x2="4.8126155740733" y2="0.8452365234813989" stroke-width="1" stroke="black" />
<line x1="2.0" y1="0.0" x2="3.0" y2="0.0" stroke-width="1" stroke="black" />
<line x1="3.0" y1="0.0" x2="4.0" y2="0.0" stroke-width="1" stroke="black" />
<line x1="4.0" y1="0.0" x2="4.90630778703665" y2="-0.42261826174069944" stroke-width="1" stroke="black" />
<line x1="2.0" y1="0.0" x2="3.0" y2="0.0" stroke-width="1" stroke="black" />
<line x1="3.0" y1="0.0" x2="4.0" y2="0.0" stroke-width="1" stroke="black" />
<line x1="4.0" y1="0.0" x2="4.90630778703665" y2="-0.42261826174069944" stroke-width="1" stroke="black" />
<line x1="4.90630778703665" y1="-0.42261826174069944" x2="5.8126155740733" y2="-0.8452365234813989" stroke-width="1" stroke="black" />
<line x1="5.8126155740733" y1="-0.8452365234813989" x2="6.71892336110995" y2="-1.2678547852220983" stroke-width="1" stroke="black" />
<line x1="6.71892336110995" y1="-1.2678547852220983" x2="7.6252311481466" y2="-1.6904730469627978" stroke-width="1" stroke="black" />
<line x1="7.6252311481466" y1="-1.6904730469627978" x2="8.26801875783314" y2="-2.456517490081776" stroke-width="1" stroke="black" />
<line x1="4.0" y1="0.0" x2="4.90630778703665" y2="0.42261826174069944" stroke-width="1" stroke="black" />
<line x1="4.90630778703665" y1="0.42261826174069944" x2="5.8126155740733" y2="0.8452365234813989" stroke-width="1" stroke="black" />
<line x1="5.8126155740733" y1="0.8452365234813989" x2="6.8126155740733" y2="0.8452365234813989" stroke-width="1" stroke="black" />
</svg>